<mxfile host="app.diagrams.net" agent="Mozilla/5.0 (Windows NT 10.0; Win64; x64) AppleWebKit/537.36 (KHTML, like Gecko) Chrome/128.0.0.0 Safari/537.36 OPR/114.0.0.0" version="24.8.4" pages="3">
  <diagram name="Página-1" id="xrkl8TNE4yBXMPA0YUC_">
    <mxGraphModel dx="2342" dy="1013" grid="1" gridSize="10" guides="1" tooltips="1" connect="1" arrows="1" fold="1" page="1" pageScale="1" pageWidth="827" pageHeight="1169" math="0" shadow="0">
      <root>
        <mxCell id="0" />
        <mxCell id="1" parent="0" />
        <mxCell id="o24NF78LJmIi3UWgeAHa-2" value="Usuário" style="shape=umlActor;verticalLabelPosition=bottom;verticalAlign=top;html=1;outlineConnect=0;" vertex="1" parent="1">
          <mxGeometry x="540" y="130" width="30" height="60" as="geometry" />
        </mxCell>
        <mxCell id="o24NF78LJmIi3UWgeAHa-3" value="" style="swimlane;startSize=0;" vertex="1" parent="1">
          <mxGeometry x="50" y="50" width="390" height="390" as="geometry" />
        </mxCell>
        <mxCell id="o24NF78LJmIi3UWgeAHa-4" value=" Gerenciar Usuários e Controle Central" style="text;html=1;align=center;verticalAlign=middle;resizable=0;points=[];autosize=1;strokeColor=none;fillColor=none;" vertex="1" parent="o24NF78LJmIi3UWgeAHa-3">
          <mxGeometry width="230" height="30" as="geometry" />
        </mxCell>
        <mxCell id="o24NF78LJmIi3UWgeAHa-5" value="Gerenciar Usuário" style="ellipse;whiteSpace=wrap;html=1;" vertex="1" parent="o24NF78LJmIi3UWgeAHa-3">
          <mxGeometry x="110" y="50" width="110" height="60" as="geometry" />
        </mxCell>
        <mxCell id="o24NF78LJmIi3UWgeAHa-6" value="Controlar Nível de Autorização" style="ellipse;whiteSpace=wrap;html=1;" vertex="1" parent="o24NF78LJmIi3UWgeAHa-3">
          <mxGeometry x="115" y="120" width="100" height="70" as="geometry" />
        </mxCell>
        <mxCell id="o24NF78LJmIi3UWgeAHa-7" value="Autenticar Usuário" style="ellipse;whiteSpace=wrap;html=1;" vertex="1" parent="o24NF78LJmIi3UWgeAHa-3">
          <mxGeometry x="110" y="270" width="110" height="70" as="geometry" />
        </mxCell>
        <mxCell id="o24NF78LJmIi3UWgeAHa-8" value="Registrar Ações" style="ellipse;whiteSpace=wrap;html=1;" vertex="1" parent="o24NF78LJmIi3UWgeAHa-3">
          <mxGeometry x="105" y="200" width="120" height="60" as="geometry" />
        </mxCell>
        <mxCell id="o24NF78LJmIi3UWgeAHa-47" value="" style="endArrow=classic;html=1;rounded=0;entryX=1;entryY=0.5;entryDx=0;entryDy=0;" edge="1" parent="o24NF78LJmIi3UWgeAHa-3" target="o24NF78LJmIi3UWgeAHa-5">
          <mxGeometry width="50" height="50" relative="1" as="geometry">
            <mxPoint x="470" y="30" as="sourcePoint" />
            <mxPoint x="350" y="90" as="targetPoint" />
            <Array as="points">
              <mxPoint x="340" y="40" />
            </Array>
          </mxGeometry>
        </mxCell>
        <mxCell id="o24NF78LJmIi3UWgeAHa-9" value="Usuário Master" style="shape=umlActor;verticalLabelPosition=bottom;verticalAlign=top;html=1;outlineConnect=0;" vertex="1" parent="1">
          <mxGeometry x="540" y="40" width="30" height="60" as="geometry" />
        </mxCell>
        <mxCell id="o24NF78LJmIi3UWgeAHa-16" value="" style="swimlane;startSize=0;" vertex="1" parent="1">
          <mxGeometry x="680" y="40" width="360" height="200" as="geometry" />
        </mxCell>
        <mxCell id="o24NF78LJmIi3UWgeAHa-17" value="Gestão dos Elevadores" style="text;html=1;align=center;verticalAlign=middle;resizable=0;points=[];autosize=1;strokeColor=none;fillColor=none;" vertex="1" parent="o24NF78LJmIi3UWgeAHa-16">
          <mxGeometry x="30" width="150" height="30" as="geometry" />
        </mxCell>
        <mxCell id="o24NF78LJmIi3UWgeAHa-18" value="Gerenciar e Operar Elevadores" style="ellipse;whiteSpace=wrap;html=1;" vertex="1" parent="o24NF78LJmIi3UWgeAHa-16">
          <mxGeometry x="170" y="30" width="120" height="50" as="geometry" />
        </mxCell>
        <mxCell id="o24NF78LJmIi3UWgeAHa-19" value="Gerenciar Emergências" style="ellipse;whiteSpace=wrap;html=1;" vertex="1" parent="o24NF78LJmIi3UWgeAHa-16">
          <mxGeometry x="148.75" y="100" width="152.5" height="60" as="geometry" />
        </mxCell>
        <mxCell id="o24NF78LJmIi3UWgeAHa-52" value="" style="endArrow=classic;html=1;rounded=0;entryX=0;entryY=0.5;entryDx=0;entryDy=0;" edge="1" parent="o24NF78LJmIi3UWgeAHa-16" target="o24NF78LJmIi3UWgeAHa-18">
          <mxGeometry width="50" height="50" relative="1" as="geometry">
            <mxPoint x="-100" y="110" as="sourcePoint" />
            <mxPoint x="90" y="182.95774647887333" as="targetPoint" />
            <Array as="points">
              <mxPoint x="30" y="70" />
            </Array>
          </mxGeometry>
        </mxCell>
        <mxCell id="o24NF78LJmIi3UWgeAHa-30" value="Operador" style="shape=umlActor;verticalLabelPosition=bottom;verticalAlign=top;html=1;outlineConnect=0;" vertex="1" parent="1">
          <mxGeometry x="540" y="230" width="30" height="60" as="geometry" />
        </mxCell>
        <mxCell id="o24NF78LJmIi3UWgeAHa-49" value="" style="endArrow=classic;html=1;rounded=0;entryX=1;entryY=0.5;entryDx=0;entryDy=0;" edge="1" parent="1" target="o24NF78LJmIi3UWgeAHa-6">
          <mxGeometry width="50" height="50" relative="1" as="geometry">
            <mxPoint x="520" y="90" as="sourcePoint" />
            <mxPoint x="280" y="140" as="targetPoint" />
            <Array as="points">
              <mxPoint x="410" y="120" />
            </Array>
          </mxGeometry>
        </mxCell>
        <mxCell id="o24NF78LJmIi3UWgeAHa-50" value="" style="endArrow=classic;html=1;rounded=0;entryX=0.975;entryY=0.241;entryDx=0;entryDy=0;entryPerimeter=0;" edge="1" parent="1" target="o24NF78LJmIi3UWgeAHa-7">
          <mxGeometry width="50" height="50" relative="1" as="geometry">
            <mxPoint x="520" y="100" as="sourcePoint" />
            <mxPoint x="290" y="150" as="targetPoint" />
            <Array as="points">
              <mxPoint x="420" y="150" />
            </Array>
          </mxGeometry>
        </mxCell>
        <mxCell id="o24NF78LJmIi3UWgeAHa-51" value="" style="endArrow=classic;html=1;rounded=0;" edge="1" parent="1">
          <mxGeometry width="50" height="50" relative="1" as="geometry">
            <mxPoint x="530" y="150" as="sourcePoint" />
            <mxPoint x="280" y="350" as="targetPoint" />
            <Array as="points" />
          </mxGeometry>
        </mxCell>
        <mxCell id="o24NF78LJmIi3UWgeAHa-54" value="" style="endArrow=classic;html=1;rounded=0;" edge="1" parent="1" target="o24NF78LJmIi3UWgeAHa-18">
          <mxGeometry width="50" height="50" relative="1" as="geometry">
            <mxPoint x="580" y="60" as="sourcePoint" />
            <mxPoint x="860" y="105" as="targetPoint" />
            <Array as="points">
              <mxPoint x="730" y="95" />
            </Array>
          </mxGeometry>
        </mxCell>
        <mxCell id="o24NF78LJmIi3UWgeAHa-55" value="" style="endArrow=classic;html=1;rounded=0;" edge="1" parent="1" target="o24NF78LJmIi3UWgeAHa-18">
          <mxGeometry width="50" height="50" relative="1" as="geometry">
            <mxPoint x="580" y="260" as="sourcePoint" />
            <mxPoint x="870" y="115" as="targetPoint" />
            <Array as="points">
              <mxPoint x="710" y="190" />
            </Array>
          </mxGeometry>
        </mxCell>
      </root>
    </mxGraphModel>
  </diagram>
  <diagram id="zq2aJBKbevPxOLjNjrOz" name="Página-2">
    <mxGraphModel dx="855" dy="918" grid="1" gridSize="10" guides="1" tooltips="1" connect="1" arrows="1" fold="1" page="1" pageScale="1" pageWidth="827" pageHeight="1169" math="0" shadow="0">
      <root>
        <mxCell id="0" />
        <mxCell id="1" parent="0" />
        <mxCell id="V6ENTacNgs6iLho6otmv-1" value="Usuario" style="swimlane;fontStyle=1;align=center;verticalAlign=top;childLayout=stackLayout;horizontal=1;startSize=30;horizontalStack=0;resizeParent=1;resizeParentMax=0;resizeLast=0;collapsible=1;marginBottom=0;whiteSpace=wrap;html=1;" vertex="1" parent="1">
          <mxGeometry x="80" y="60" width="210" height="220" as="geometry" />
        </mxCell>
        <mxCell id="V6ENTacNgs6iLho6otmv-2" value="&lt;span style=&quot;background-color: initial;&quot;&gt;nome: string&lt;/span&gt;&lt;br&gt;&lt;span style=&quot;background-color: initial;&quot;&gt;email: string&lt;/span&gt;&lt;br&gt;&lt;span style=&quot;background-color: initial;&quot;&gt;senha: string&lt;/span&gt;&lt;br&gt;&lt;span style=&quot;background-color: initial;&quot;&gt;ultimoLogin: Date&lt;/span&gt;&lt;br&gt;&lt;span style=&quot;background-color: initial;&quot;&gt;tentativasFalhas: int&lt;/span&gt;&lt;br&gt;&lt;span style=&quot;background-color: initial;&quot;&gt;nivelAcesso: string&lt;/span&gt;" style="text;strokeColor=none;fillColor=none;align=left;verticalAlign=top;spacingLeft=4;spacingRight=4;overflow=hidden;rotatable=0;points=[[0,0.5],[1,0.5]];portConstraint=eastwest;whiteSpace=wrap;html=1;" vertex="1" parent="V6ENTacNgs6iLho6otmv-1">
          <mxGeometry y="30" width="210" height="100" as="geometry" />
        </mxCell>
        <mxCell id="V6ENTacNgs6iLho6otmv-3" value="" style="line;strokeWidth=1;fillColor=none;align=left;verticalAlign=middle;spacingTop=-1;spacingLeft=3;spacingRight=3;rotatable=0;labelPosition=right;points=[];portConstraint=eastwest;strokeColor=inherit;" vertex="1" parent="V6ENTacNgs6iLho6otmv-1">
          <mxGeometry y="130" width="210" height="8" as="geometry" />
        </mxCell>
        <mxCell id="V6ENTacNgs6iLho6otmv-4" value="&lt;span style=&quot;background-color: initial;&quot;&gt;autenticar(email: string, senha: string): bool&lt;/span&gt;&lt;br&gt;&lt;span style=&quot;background-color: initial;&quot;&gt;gerenciarPerfil()&lt;/span&gt;&lt;br&gt;&lt;span style=&quot;background-color: initial;&quot;&gt;definirNivelAcesso(nivel: string)&lt;/span&gt;" style="text;strokeColor=none;fillColor=none;align=left;verticalAlign=top;spacingLeft=4;spacingRight=4;overflow=hidden;rotatable=0;points=[[0,0.5],[1,0.5]];portConstraint=eastwest;whiteSpace=wrap;html=1;" vertex="1" parent="V6ENTacNgs6iLho6otmv-1">
          <mxGeometry y="138" width="210" height="82" as="geometry" />
        </mxCell>
        <mxCell id="V6ENTacNgs6iLho6otmv-5" value="Elevador" style="swimlane;fontStyle=1;align=center;verticalAlign=top;childLayout=stackLayout;horizontal=1;startSize=26;horizontalStack=0;resizeParent=1;resizeParentMax=0;resizeLast=0;collapsible=1;marginBottom=0;whiteSpace=wrap;html=1;" vertex="1" parent="1">
          <mxGeometry x="580" y="365" width="210" height="220" as="geometry" />
        </mxCell>
        <mxCell id="V6ENTacNgs6iLho6otmv-6" value="&lt;font face=&quot;Helvetica&quot;&gt;&lt;span style=&quot;background-color: initial;&quot;&gt;id: int&lt;/span&gt;&lt;br&gt;&lt;span style=&quot;background-color: initial;&quot;&gt;andarAtual: int&lt;/span&gt;&lt;br&gt;&lt;span style=&quot;background-color: initial;&quot;&gt;cargaAtual: float&lt;/span&gt;&lt;br&gt;&lt;span style=&quot;background-color: initial;&quot;&gt;capacidadeMaxima: float&lt;/span&gt;&lt;br&gt;&lt;span style=&quot;background-color: initial;&quot;&gt;status: string&lt;/span&gt;&lt;/font&gt;" style="text;strokeColor=none;fillColor=none;align=left;verticalAlign=top;spacingLeft=4;spacingRight=4;overflow=hidden;rotatable=0;points=[[0,0.5],[1,0.5]];portConstraint=eastwest;whiteSpace=wrap;html=1;" vertex="1" parent="V6ENTacNgs6iLho6otmv-5">
          <mxGeometry y="26" width="210" height="84" as="geometry" />
        </mxCell>
        <mxCell id="V6ENTacNgs6iLho6otmv-7" value="" style="line;strokeWidth=1;fillColor=none;align=left;verticalAlign=middle;spacingTop=-1;spacingLeft=3;spacingRight=3;rotatable=0;labelPosition=right;points=[];portConstraint=eastwest;strokeColor=inherit;" vertex="1" parent="V6ENTacNgs6iLho6otmv-5">
          <mxGeometry y="110" width="210" height="8" as="geometry" />
        </mxCell>
        <mxCell id="V6ENTacNgs6iLho6otmv-8" value="&lt;span style=&quot;background-color: initial;&quot;&gt;chamar(andar: int)&lt;/span&gt;&lt;br&gt;&lt;span style=&quot;background-color: initial;&quot;&gt;mover(andarDestino: int)&lt;/span&gt;&lt;br&gt;&lt;span style=&quot;background-color: initial;&quot;&gt;verificarCarga(): bool&lt;/span&gt;&lt;br&gt;&lt;span style=&quot;background-color: initial;&quot;&gt;abrirPorta()&lt;/span&gt;&lt;br&gt;&lt;span style=&quot;background-color: initial;&quot;&gt;fecharPorta()&lt;/span&gt;&lt;br&gt;&lt;span style=&quot;background-color: initial;&quot;&gt;executarProcedimentoEmergencia()&lt;/span&gt;" style="text;strokeColor=none;fillColor=none;align=left;verticalAlign=top;spacingLeft=4;spacingRight=4;overflow=hidden;rotatable=0;points=[[0,0.5],[1,0.5]];portConstraint=eastwest;whiteSpace=wrap;html=1;" vertex="1" parent="V6ENTacNgs6iLho6otmv-5">
          <mxGeometry y="118" width="210" height="102" as="geometry" />
        </mxCell>
        <mxCell id="V6ENTacNgs6iLho6otmv-9" value="Display" style="swimlane;fontStyle=1;align=center;verticalAlign=top;childLayout=stackLayout;horizontal=1;startSize=26;horizontalStack=0;resizeParent=1;resizeParentMax=0;resizeLast=0;collapsible=1;marginBottom=0;whiteSpace=wrap;html=1;" vertex="1" parent="1">
          <mxGeometry x="124" y="585" width="290" height="130" as="geometry" />
        </mxCell>
        <mxCell id="V6ENTacNgs6iLho6otmv-10" value="&lt;span style=&quot;background-color: initial;&quot;&gt;andarAtual: int&lt;/span&gt;&lt;br&gt;&lt;span style=&quot;background-color: initial;&quot;&gt;destinos: List&amp;lt;int&amp;gt;&lt;/span&gt;" style="text;strokeColor=none;fillColor=none;align=left;verticalAlign=top;spacingLeft=4;spacingRight=4;overflow=hidden;rotatable=0;points=[[0,0.5],[1,0.5]];portConstraint=eastwest;whiteSpace=wrap;html=1;" vertex="1" parent="V6ENTacNgs6iLho6otmv-9">
          <mxGeometry y="26" width="290" height="54" as="geometry" />
        </mxCell>
        <mxCell id="V6ENTacNgs6iLho6otmv-11" value="" style="line;strokeWidth=1;fillColor=none;align=left;verticalAlign=middle;spacingTop=-1;spacingLeft=3;spacingRight=3;rotatable=0;labelPosition=right;points=[];portConstraint=eastwest;strokeColor=inherit;" vertex="1" parent="V6ENTacNgs6iLho6otmv-9">
          <mxGeometry y="80" width="290" height="8" as="geometry" />
        </mxCell>
        <mxCell id="V6ENTacNgs6iLho6otmv-12" value="&lt;span style=&quot;background-color: initial;&quot;&gt;atualizarDisplay(andarAtual: int, destinos: List&amp;lt;int&amp;gt;)&lt;/span&gt;" style="text;strokeColor=none;fillColor=none;align=left;verticalAlign=top;spacingLeft=4;spacingRight=4;overflow=hidden;rotatable=0;points=[[0,0.5],[1,0.5]];portConstraint=eastwest;whiteSpace=wrap;html=1;" vertex="1" parent="V6ENTacNgs6iLho6otmv-9">
          <mxGeometry y="88" width="290" height="42" as="geometry" />
        </mxCell>
        <mxCell id="V6ENTacNgs6iLho6otmv-13" value="SalaDeComando" style="swimlane;fontStyle=1;align=center;verticalAlign=top;childLayout=stackLayout;horizontal=1;startSize=26;horizontalStack=0;resizeParent=1;resizeParentMax=0;resizeLast=0;collapsible=1;marginBottom=0;whiteSpace=wrap;html=1;" vertex="1" parent="1">
          <mxGeometry x="600" y="70" width="200" height="170" as="geometry" />
        </mxCell>
        <mxCell id="V6ENTacNgs6iLho6otmv-14" value="&lt;span style=&quot;background-color: initial;&quot;&gt;listaUsuarios: List&amp;lt;Usuario&amp;gt;&lt;/span&gt;&lt;br&gt;&lt;span style=&quot;background-color: initial;&quot;&gt;listaElevadores: List&amp;lt;Elevador&amp;gt;&lt;/span&gt;" style="text;strokeColor=none;fillColor=none;align=left;verticalAlign=top;spacingLeft=4;spacingRight=4;overflow=hidden;rotatable=0;points=[[0,0.5],[1,0.5]];portConstraint=eastwest;whiteSpace=wrap;html=1;" vertex="1" parent="V6ENTacNgs6iLho6otmv-13">
          <mxGeometry y="26" width="200" height="54" as="geometry" />
        </mxCell>
        <mxCell id="V6ENTacNgs6iLho6otmv-15" value="" style="line;strokeWidth=1;fillColor=none;align=left;verticalAlign=middle;spacingTop=-1;spacingLeft=3;spacingRight=3;rotatable=0;labelPosition=right;points=[];portConstraint=eastwest;strokeColor=inherit;" vertex="1" parent="V6ENTacNgs6iLho6otmv-13">
          <mxGeometry y="80" width="200" height="8" as="geometry" />
        </mxCell>
        <mxCell id="V6ENTacNgs6iLho6otmv-16" value="&lt;span style=&quot;background-color: initial;&quot;&gt;gerenciarUsuarios()&lt;/span&gt;&lt;br&gt;&lt;span style=&quot;background-color: initial;&quot;&gt;configurarElevadores()&lt;/span&gt;&lt;br&gt;&lt;span style=&quot;background-color: initial;&quot;&gt;registrarAcao(usuario: Usuario, acao: string)&lt;/span&gt;" style="text;strokeColor=none;fillColor=none;align=left;verticalAlign=top;spacingLeft=4;spacingRight=4;overflow=hidden;rotatable=0;points=[[0,0.5],[1,0.5]];portConstraint=eastwest;whiteSpace=wrap;html=1;" vertex="1" parent="V6ENTacNgs6iLho6otmv-13">
          <mxGeometry y="88" width="200" height="82" as="geometry" />
        </mxCell>
        <mxCell id="V6ENTacNgs6iLho6otmv-17" value="Log" style="swimlane;fontStyle=1;align=center;verticalAlign=top;childLayout=stackLayout;horizontal=1;startSize=26;horizontalStack=0;resizeParent=1;resizeParentMax=0;resizeLast=0;collapsible=1;marginBottom=0;whiteSpace=wrap;html=1;" vertex="1" parent="1">
          <mxGeometry x="200" y="350" width="160" height="160" as="geometry" />
        </mxCell>
        <mxCell id="V6ENTacNgs6iLho6otmv-18" value="&lt;span style=&quot;background-color: initial;&quot;&gt;dataHora: Date&lt;/span&gt;&lt;br&gt;&lt;span style=&quot;background-color: initial;&quot;&gt;usuario: string&lt;/span&gt;&lt;br&gt;&lt;span style=&quot;background-color: initial;&quot;&gt;acao: string&lt;/span&gt;" style="text;strokeColor=none;fillColor=none;align=left;verticalAlign=top;spacingLeft=4;spacingRight=4;overflow=hidden;rotatable=0;points=[[0,0.5],[1,0.5]];portConstraint=eastwest;whiteSpace=wrap;html=1;" vertex="1" parent="V6ENTacNgs6iLho6otmv-17">
          <mxGeometry y="26" width="160" height="94" as="geometry" />
        </mxCell>
        <mxCell id="V6ENTacNgs6iLho6otmv-19" value="" style="line;strokeWidth=1;fillColor=none;align=left;verticalAlign=middle;spacingTop=-1;spacingLeft=3;spacingRight=3;rotatable=0;labelPosition=right;points=[];portConstraint=eastwest;strokeColor=inherit;" vertex="1" parent="V6ENTacNgs6iLho6otmv-17">
          <mxGeometry y="120" width="160" height="8" as="geometry" />
        </mxCell>
        <mxCell id="V6ENTacNgs6iLho6otmv-20" value="registrarAcao()" style="text;strokeColor=none;fillColor=none;align=left;verticalAlign=top;spacingLeft=4;spacingRight=4;overflow=hidden;rotatable=0;points=[[0,0.5],[1,0.5]];portConstraint=eastwest;whiteSpace=wrap;html=1;" vertex="1" parent="V6ENTacNgs6iLho6otmv-17">
          <mxGeometry y="128" width="160" height="32" as="geometry" />
        </mxCell>
        <mxCell id="V6ENTacNgs6iLho6otmv-22" value="" style="endArrow=classic;html=1;rounded=0;exitX=0;exitY=0.5;exitDx=0;exitDy=0;entryX=1;entryY=0.5;entryDx=0;entryDy=0;" edge="1" parent="1" source="V6ENTacNgs6iLho6otmv-14" target="V6ENTacNgs6iLho6otmv-2">
          <mxGeometry width="50" height="50" relative="1" as="geometry">
            <mxPoint x="620" y="370" as="sourcePoint" />
            <mxPoint x="540" y="280" as="targetPoint" />
          </mxGeometry>
        </mxCell>
        <mxCell id="V6ENTacNgs6iLho6otmv-23" value="1" style="text;html=1;align=center;verticalAlign=middle;resizable=0;points=[];autosize=1;strokeColor=none;fillColor=none;" vertex="1" parent="1">
          <mxGeometry x="570" y="88" width="30" height="30" as="geometry" />
        </mxCell>
        <mxCell id="V6ENTacNgs6iLho6otmv-24" value="*" style="text;html=1;align=center;verticalAlign=middle;resizable=0;points=[];autosize=1;strokeColor=none;fillColor=none;" vertex="1" parent="1">
          <mxGeometry x="310" y="100" width="30" height="30" as="geometry" />
        </mxCell>
        <mxCell id="V6ENTacNgs6iLho6otmv-25" value="" style="endArrow=classic;html=1;rounded=0;exitX=0.432;exitY=0.997;exitDx=0;exitDy=0;exitPerimeter=0;" edge="1" parent="1" source="V6ENTacNgs6iLho6otmv-16">
          <mxGeometry width="50" height="50" relative="1" as="geometry">
            <mxPoint x="610" y="133" as="sourcePoint" />
            <mxPoint x="670" y="360" as="targetPoint" />
          </mxGeometry>
        </mxCell>
        <mxCell id="V6ENTacNgs6iLho6otmv-26" value="1" style="text;html=1;align=center;verticalAlign=middle;resizable=0;points=[];autosize=1;strokeColor=none;fillColor=none;" vertex="1" parent="1">
          <mxGeometry x="650" y="240" width="30" height="30" as="geometry" />
        </mxCell>
        <mxCell id="V6ENTacNgs6iLho6otmv-27" value="*" style="text;html=1;align=center;verticalAlign=middle;resizable=0;points=[];autosize=1;strokeColor=none;fillColor=none;" vertex="1" parent="1">
          <mxGeometry x="630" y="330" width="30" height="30" as="geometry" />
        </mxCell>
        <mxCell id="V6ENTacNgs6iLho6otmv-28" value="" style="endArrow=classic;html=1;rounded=0;exitX=0;exitY=0.5;exitDx=0;exitDy=0;entryX=1;entryY=0.5;entryDx=0;entryDy=0;" edge="1" parent="1" target="V6ENTacNgs6iLho6otmv-10">
          <mxGeometry width="50" height="50" relative="1" as="geometry">
            <mxPoint x="580" y="450" as="sourcePoint" />
            <mxPoint x="270" y="467" as="targetPoint" />
            <Array as="points">
              <mxPoint x="530" y="560" />
            </Array>
          </mxGeometry>
        </mxCell>
        <mxCell id="V6ENTacNgs6iLho6otmv-29" value="1" style="text;html=1;align=center;verticalAlign=middle;resizable=0;points=[];autosize=1;strokeColor=none;fillColor=none;" vertex="1" parent="1">
          <mxGeometry x="540" y="430" width="30" height="30" as="geometry" />
        </mxCell>
        <mxCell id="V6ENTacNgs6iLho6otmv-30" value="1" style="text;html=1;align=center;verticalAlign=middle;resizable=0;points=[];autosize=1;strokeColor=none;fillColor=none;" vertex="1" parent="1">
          <mxGeometry x="420" y="580" width="30" height="30" as="geometry" />
        </mxCell>
        <mxCell id="V6ENTacNgs6iLho6otmv-31" value="" style="endArrow=classic;html=1;rounded=0;entryX=0.997;entryY=0.722;entryDx=0;entryDy=0;entryPerimeter=0;exitX=0.75;exitY=0;exitDx=0;exitDy=0;" edge="1" parent="1" source="V6ENTacNgs6iLho6otmv-17" target="V6ENTacNgs6iLho6otmv-4">
          <mxGeometry width="50" height="50" relative="1" as="geometry">
            <mxPoint x="420" y="300" as="sourcePoint" />
            <mxPoint x="300" y="287" as="targetPoint" />
            <Array as="points">
              <mxPoint x="310" y="310" />
            </Array>
          </mxGeometry>
        </mxCell>
        <mxCell id="V6ENTacNgs6iLho6otmv-32" value="1" style="text;html=1;align=center;verticalAlign=middle;resizable=0;points=[];autosize=1;strokeColor=none;fillColor=none;" vertex="1" parent="1">
          <mxGeometry x="290" y="240" width="30" height="30" as="geometry" />
        </mxCell>
        <mxCell id="V6ENTacNgs6iLho6otmv-33" value="1" style="text;html=1;align=center;verticalAlign=middle;resizable=0;points=[];autosize=1;strokeColor=none;fillColor=none;" vertex="1" parent="1">
          <mxGeometry x="320" y="320" width="30" height="30" as="geometry" />
        </mxCell>
      </root>
    </mxGraphModel>
  </diagram>
  <diagram id="dfa9Fa51E9YUR6IW1CBU" name="Página-3">
    <mxGraphModel dx="641" dy="689" grid="1" gridSize="10" guides="1" tooltips="1" connect="1" arrows="1" fold="1" page="1" pageScale="1" pageWidth="827" pageHeight="1169" math="0" shadow="0">
      <root>
        <mxCell id="0" />
        <mxCell id="1" parent="0" />
        <mxCell id="DOgYqkGLbrjq6ytVb9zi-3" value="Gerenciar Usuarios" style="text;html=1;align=center;verticalAlign=middle;resizable=0;points=[];autosize=1;strokeColor=none;fillColor=none;" vertex="1" parent="1">
          <mxGeometry x="195" y="100" width="130" height="30" as="geometry" />
        </mxCell>
        <mxCell id="DOgYqkGLbrjq6ytVb9zi-7" value="" style="shape=umlLifeline;perimeter=lifelinePerimeter;whiteSpace=wrap;html=1;container=1;dropTarget=0;collapsible=0;recursiveResize=0;outlineConnect=0;portConstraint=eastwest;newEdgeStyle={&quot;curved&quot;:0,&quot;rounded&quot;:0};participant=umlActor;" vertex="1" parent="1">
          <mxGeometry x="160" y="190" width="20" height="330" as="geometry" />
        </mxCell>
        <mxCell id="DOgYqkGLbrjq6ytVb9zi-8" value="Usuário" style="text;html=1;align=center;verticalAlign=middle;resizable=0;points=[];autosize=1;strokeColor=none;fillColor=none;" vertex="1" parent="1">
          <mxGeometry x="140" y="150" width="60" height="30" as="geometry" />
        </mxCell>
        <mxCell id="DOgYqkGLbrjq6ytVb9zi-9" value="Usuario" style="shape=umlLifeline;perimeter=lifelinePerimeter;whiteSpace=wrap;html=1;container=1;dropTarget=0;collapsible=0;recursiveResize=0;outlineConnect=0;portConstraint=eastwest;newEdgeStyle={&quot;curved&quot;:0,&quot;rounded&quot;:0};" vertex="1" parent="1">
          <mxGeometry x="390" y="170" width="100" height="430" as="geometry" />
        </mxCell>
        <mxCell id="DOgYqkGLbrjq6ytVb9zi-10" value="SalaDeComando" style="shape=umlLifeline;perimeter=lifelinePerimeter;whiteSpace=wrap;html=1;container=1;dropTarget=0;collapsible=0;recursiveResize=0;outlineConnect=0;portConstraint=eastwest;newEdgeStyle={&quot;curved&quot;:0,&quot;rounded&quot;:0};" vertex="1" parent="1">
          <mxGeometry x="260" y="170" width="100" height="350" as="geometry" />
        </mxCell>
        <mxCell id="DOgYqkGLbrjq6ytVb9zi-11" value="Log" style="shape=umlLifeline;perimeter=lifelinePerimeter;whiteSpace=wrap;html=1;container=1;dropTarget=0;collapsible=0;recursiveResize=0;outlineConnect=0;portConstraint=eastwest;newEdgeStyle={&quot;curved&quot;:0,&quot;rounded&quot;:0};" vertex="1" parent="1">
          <mxGeometry x="540" y="170" width="100" height="550" as="geometry" />
        </mxCell>
      </root>
    </mxGraphModel>
  </diagram>
</mxfile>
